# xmcd
# 
# Track frame offsets:
#     150
#     11403
#     21380
#     31920
#     44230
#     54185
#     66300
#     76195
#     85520
#     99675
# 
# Disc length: 1447
# 
# Revision: 6
# Processed by: cddbd v1.5.2PL0 Copyright (c) Steve Scherf et al.
# Submitted via: fre:ac v1.0.31
# 
DISCID=7505a50a
DTITLE=Billboard - Billboard Top Country Hits 1965
DYEAR=1990
DGENRE=Country
TTITLE0=Roger Miller - King Of The Road
TTITLE1=Buck Owens - I've Got A Tiger By The Tail
TTITLE2=Sonny James - I'll Keep Holding On (Just To Your Love)
TTITLE3=Del Reeves - Girl On The Billboard
TTITLE4=Dave Dudley - Truck Drivin' Son-Of-A-Gun
TTITLE5=Eddy Arnold - Make The World Go Away
TTITLE6=Buck Owens - Before You Go
TTITLE7=Sonny James - Behind The Tear
TTITLE8=Jim Reeves - This Is It
TTITLE9=Buck Owens And The Buckaroos - Buckaroo
EXTD=Rhino Records Compilation 1990 R2 70686
EXTT0=
EXTT1=
EXTT2=
EXTT3=
EXTT4=
EXTT5=
EXTT6=
EXTT7=
EXTT8=
EXTT9=
PLAYORDER=
